<?xml version="1.0" encoding="utf-8"?>
<svg width="414pt" height="130pt" viewBox="0 0 414 130" version="1.1" xmlns="http://www.w3.org/2000/svg">
  <g id="#ffffffff"/>
  <g id="#ef3726ff" transform="matrix(1, 0, 0, 1, 18.878401, -56.966404)">
    <path fill="#ef3726" opacity="1.00" d=" M 0.00 115.65 C 2.62 114.98 5.33 115.26 8.00 115.24 C 19.36 115.29 30.72 115.19 42.08 115.29 C 41.92 120.19 42.04 125.10 41.91 130.00 L 0.00 130.00 L 0.00 115.65 Z"/>
  </g>
  <g id="#ff8201ff" transform="matrix(1, 0, 0, 1, 18.878401, -56.9664)">
    <path fill="#ff8201" opacity="1.00" d=" M 42.08 115.29 C 56.18 115.33 70.28 115.27 84.38 115.32 C 84.54 120.21 84.35 125.11 84.36 130.00 L 41.91 130.00 C 42.04 125.10 41.92 120.19 42.08 115.29 Z"/>
  </g>
  <g id="#ffb600ff" transform="matrix(1, 0, 0, 1, 18.878401, -56.9664)">
    <path fill="#ffb600" opacity="1.00" d=" M 84.38 115.32 C 98.75 115.31 113.12 115.30 127.49 115.33 C 127.41 120.22 127.44 125.11 127.52 130.00 L 84.36 130.00 C 84.35 125.11 84.54 120.21 84.38 115.32 Z"/>
  </g>
  <g id="#79be21ff" transform="matrix(1, 0, 0, 1, 18.878399, -56.966404)">
    <path fill="#79be21" opacity="1.00" d=" M 127.49 115.33 C 141.36 115.15 155.24 115.46 169.12 115.17 C 169.50 120.10 169.60 125.05 169.53 130.00 L 127.52 130.00 C 127.44 125.11 127.41 120.22 127.49 115.33 Z"/>
  </g>
  <g id="#1a8bd9ff" transform="matrix(1, 0, 0, 1, 18.216002, -56.966404)">
    <path fill="#1a8bd9" opacity="1.00" d=" M 169.88 115.15 C 183.98 115.35 198.08 115.17 212.18 115.22 C 212.25 120.15 212.24 125.07 212.21 130.00 L 169.70 130.00 C 169.65 125.05 169.68 120.09 169.88 115.15 Z"/>
  </g>
</svg>